# xmcd CD database file
#
# Track frame offsets:
#	150
#	16813
#	32055
#	47921
#	64452
#	68706
#	84757
#	102380
#	117562
#	135309
#	155769
#	172654
#	192533
#	214202
#	233741
#
# Disc length: 3343 seconds
#
# Revision: 3
# Processed by: cddbd v1.5.2PL0 Copyright (c) Steve Scherf et al.
# Submitted via: CDex 1.70beta2
#
DISCID=cc0d0d0f
DTITLE=Michelle Bonilla - Phenomenal
DYEAR=2006
DGENRE=christian
TTITLE0=All To You
TTITLE1=Sinti (Without You) featuring Da' T.R.U.T.H.
TTITLE2=Oh Lord You Are
TTITLE3=Your Love
TTITLE4=Phenomenal Interlude
TTITLE5=Phenomenal
TTITLE6=Little Girl
TTITLE7=Don't Stop
TTITLE8=Paraiso (Paradise) featuring Eric E
TTITLE9=Daddy's Song
TTITLE10=Everybody Praise Him
TTITLE11=Cold World
TTITLE12=El Shaddai
TTITLE13=Bonus Track: Cambiame Hoy (Change Me Today)
TTITLE14=Bonus Track: Thank You
EXTD=YEAR: 2006
EXTT0=
EXTT1=
EXTT2=
EXTT3=
EXTT4=
EXTT5=
EXTT6=
EXTT7=
EXTT8=
EXTT9=
EXTT10=
EXTT11=
EXTT12=
EXTT13=
EXTT14=
PLAYORDER=
